# xmcd CD database file
#
# Track frame offsets:
#	187
#	16772
#	38200
#	58767
#	76960
#	95655
#	116177
#	134510
#	151352
#	171302
#
# Disc length: 2543 seconds
#
# Revision: 0
# Processed by: cddbd v1.5.1PL0 Copyright (c) Steve Scherf et al.
# Submitted via: CDex 1.51
#
DISCID=8309ed0a
DTITLE=ティム・ハーデン・トリオ - Ｋｅｉｓｕｋｅ　Ｋｕｗａｔａ
DYEAR=1900
DGENRE=Jazz
TTITLE0=逢いたくなった時に君はここにいない
TTITLE1=ネオ・ブラボー！！
TTITLE2=真夏の果実
TTITLE3=勝手にシンドバット
TTITLE4=恋人も濡れる街角
TTITLE5=ＹＯＵ
TTITLE6=ＹａＹａ
TTITLE7=栞のテーマ
TTITLE8=ＭＩＳＳ　ＢＲＡＮＤ　ＮＥＷ　ＤＡＹ
TTITLE9=私はピアノ
EXTD=
EXTT0=
EXTT1=
EXTT2=
EXTT3=
EXTT4=
EXTT5=
EXTT6=
EXTT7=
EXTT8=
EXTT9=
PLAYORDER=
